<svg width="100" height="100" xmlns="http://www.w3.org/2000/svg">
  <path d="M 65 50 L 67.5 50 L 65 45 M 65 50 L 62.5 55 M 65 45 L 62.5 40" fill="none" stroke="black" stroke-width="5.5" stroke-linecap="butt" stroke-linejoin="bevel"/>
  <path d="M 62.5 55 L 60 60 M 62.5 40 L 60 35" fill="none" stroke="black" stroke-width="5" stroke-linecap="butt" stroke-linejoin="bevel"/>
  <path d="M 60 60 L 57.5 65 M 60 35 L 57.5 30" fill="none" stroke="black" stroke-width="4.5" stroke-linecap="butt" stroke-linejoin="bevel"/>
  <path d="M 57.5 65 L 55 70 M 57.5 30 L 55 25" fill="none" stroke="black" stroke-width="4" stroke-linecap="butt" stroke-linejoin="bevel"/>
  <path d="M 55 70 L 52.5 75 M 55 25 L 52.5 20" fill="none" stroke="black" stroke-width="3.5" stroke-linecap="butt" stroke-linejoin="bevel"/>
  <path d="M 52.5 75 L 50 80 M 52.5 20 L 50 15" fill="none" stroke="black" stroke-width="3" stroke-linecap="butt" stroke-linejoin="bevel"/>
  <path d="M 50 80 L 47.5 85 M 50 15 L 47.5 10" fill="none" stroke="black" stroke-width="2.5" stroke-linecap="butt" stroke-linejoin="bevel"/>
  <path d="M 47.5 85 L 45 90 M 47.5 10 L 45 5" fill="none" stroke="black" stroke-width="2" stroke-linecap="butt" stroke-linejoin="bevel"/>
  <path d="M 45 90 L 42.5 95 M 45 5 L 42.5 0" fill="none" stroke="black" stroke-width="1.5" stroke-linecap="butt" stroke-linejoin="bevel"/>
</svg>