<svg width="100" height="100" xmlns="http://www.w3.org/2000/svg">
  <path d="M 35 50 L 32.5 50 L 35 45 M 35 50 L 37.5 55 M 35 45 L 37.5 40" fill="none" stroke="white" stroke-width="5.5" stroke-linecap="butt" stroke-linejoin="bevel"/>
  <path d="M 37.5 55 L 40 60 M 37.5 40 L 40 35" fill="none" stroke="white" stroke-width="5" stroke-linecap="butt" stroke-linejoin="bevel"/>
  <path d="M 40 60 L 42.5 65 M 40 35 L 42.5 30" fill="none" stroke="white" stroke-width="4.5" stroke-linecap="butt" stroke-linejoin="bevel"/>
  <path d="M 42.5 65 L 45 70 M 42.5 30 L 45 25" fill="none" stroke="white" stroke-width="4" stroke-linecap="butt" stroke-linejoin="bevel"/>
  <path d="M 45 70 L 47.5 75 M 45 25 L 47.5 20" fill="none" stroke="white" stroke-width="3.5" stroke-linecap="butt" stroke-linejoin="bevel"/>
  <path d="M 47.5 75 L 50 80 M 47.5 20 L 50 15" fill="none" stroke="white" stroke-width="3" stroke-linecap="butt" stroke-linejoin="bevel"/>
  <path d="M 50 80 L 52.5 85 M 50 15 L 52.5 10" fill="none" stroke="white" stroke-width="2.5" stroke-linecap="butt" stroke-linejoin="bevel"/>
  <path d="M 52.5 85 L 55 90 M 52.5 10 L 55 5" fill="none" stroke="white" stroke-width="2" stroke-linecap="butt" stroke-linejoin="bevel"/>
  <path d="M 55 90 L 57.5 95 M 55 5 L 57.5 0" fill="none" stroke="white" stroke-width="1.5" stroke-linecap="butt" stroke-linejoin="bevel"/>
</svg>